<svg xmlns="http://www.w3.org/2000/svg" width="116.46" height="55.98" viewBox="0 0 116.46 55.98"><g transform="translate(-60 -32.472)"><path d="M21.29-42.369h6.155v33.4H21.29v-2.815A9.233,9.233,0,0,1,13.561-8.3a10.86,10.86,0,0,1-8.23-3.65A12.613,12.613,0,0,1,1.92-20.9a12.613,12.613,0,0,1,3.411-8.946,10.86,10.86,0,0,1,8.23-3.65,9.233,9.233,0,0,1,7.729,3.483ZM9.935-16.033a6.561,6.561,0,0,0,4.771,1.861,6.357,6.357,0,0,0,4.723-1.885A6.6,6.6,0,0,0,21.29-20.9a6.6,6.6,0,0,0-1.861-4.843,6.357,6.357,0,0,0-4.723-1.885,6.436,6.436,0,0,0-4.747,1.885A6.555,6.555,0,0,0,8.075-20.9,6.682,6.682,0,0,0,9.935-16.033Zm28.34-2.338q1.24,4.485,6.727,4.485a6.294,6.294,0,0,0,5.344-2.385l4.962,2.863q-3.531,5.1-10.4,5.1a12.833,12.833,0,0,1-9.494-3.578A12.225,12.225,0,0,1,31.834-20.9a12.334,12.334,0,0,1,3.531-8.993,12.142,12.142,0,0,1,9.065-3.6,11.374,11.374,0,0,1,8.659,3.626A12.59,12.59,0,0,1,56.5-20.9a14.409,14.409,0,0,1-.239,2.529Zm-.1-4.771H50.346a5.767,5.767,0,0,0-2.171-3.626A6.222,6.222,0,0,0,44.43-27.96a6.474,6.474,0,0,0-4.1,1.264A6.042,6.042,0,0,0,38.18-23.142ZM60.794-8.972V-43.8h6.155V-8.972ZM92.9-11.93A12.285,12.285,0,0,1,83.933-8.3a12.164,12.164,0,0,1-8.946-3.65,12.164,12.164,0,0,1-3.65-8.946,12.164,12.164,0,0,1,3.65-8.946,12.164,12.164,0,0,1,8.946-3.65,12.243,12.243,0,0,1,8.969,3.65A12.124,12.124,0,0,1,96.577-20.9,12.2,12.2,0,0,1,92.9-11.93Zm-13.6-4.246a6.282,6.282,0,0,0,4.628,1.861,6.282,6.282,0,0,0,4.628-1.861A6.4,6.4,0,0,0,90.422-20.9a6.4,6.4,0,0,0-1.861-4.723,6.282,6.282,0,0,0-4.628-1.861,6.2,6.2,0,0,0-4.6,1.861A6.444,6.444,0,0,0,77.493-20.9,6.49,6.49,0,0,0,79.306-16.176Zm26.765-9.876q0,.954,1.264,1.551a16.859,16.859,0,0,0,3.077,1.05,31.805,31.805,0,0,1,3.626,1.145,7.038,7.038,0,0,1,3.077,2.314,6.4,6.4,0,0,1,1.264,4.055,6.553,6.553,0,0,1-2.743,5.654A11.4,11.4,0,0,1,108.79-8.3q-7.347,0-10.019-5.677l5.344-3.006q1.05,3.1,4.676,3.1,3.292,0,3.292-2.052,0-.954-1.264-1.551a18.045,18.045,0,0,0-3.077-1.073,32.174,32.174,0,0,1-3.626-1.193,7.444,7.444,0,0,1-3.077-2.266,5.952,5.952,0,0,1-1.264-3.888,6.664,6.664,0,0,1,2.6-5.558,10.193,10.193,0,0,1,6.465-2.028,10.8,10.8,0,0,1,5.3,1.312,9.588,9.588,0,0,1,3.769,3.745l-5.248,2.863a3.925,3.925,0,0,0-3.817-2.433,3.5,3.5,0,0,0-1.98.525A1.636,1.636,0,0,0,106.071-26.052Z" transform="translate(58.08 76.272)" fill="#3c138e"/><g transform="translate(60 73.932)"><rect width="33.397" height="14.52" rx="2" fill="#2c1361"/><path d="M4.015-7.869a2.47,2.47,0,0,0,1.568-.5,1.6,1.6,0,0,0,.639-1.34,1.539,1.539,0,0,0-1.051-1.506,1.4,1.4,0,0,0,.8-1.279C5.968-13.439,5.2-14,3.927-14H1.3v6.131Zm-.044-2.662c.6,0,.893.289.893.753q0,.736-.893.736H2.719v-1.489ZM3.9-12.9c.482,0,.753.219.753.6s-.289.613-.753.613H2.719V-12.9ZM11.53-7.869V-9.113H8.447v-1.322h2.811v-1.209H8.447v-1.112H11.5V-14H7.028v6.131ZM13.9-12.756v4.887h1.419v-4.887h1.813V-14H12.09v1.244Zm3.932,4.887.552-1.48h2.137l.552,1.48h1.541L20.121-14H18.79l-2.5,6.131Zm1.62-4.414c.079.245.158.49.254.727l.368,1H18.834l.368-1Z" transform="translate(4.74 18.195)" fill="#fff"/></g></g></svg>