<svg xmlns="http://www.w3.org/2000/svg" width="195.28" height="93.868" viewBox="0 0 195.28 93.868"><g transform="translate(-176 -110)"><g transform="translate(-251.173 -97.446)"><rect width="56" height="24.348" rx="3" transform="translate(427.173 276.966)" fill="#190b38"/><path d="M5.853-3.72a4.141,4.141,0,0,0,2.629-.837A2.691,2.691,0,0,0,9.553-6.8,2.581,2.581,0,0,0,7.791-9.33a2.346,2.346,0,0,0,1.336-2.144C9.128-13.06,7.835-14,5.706-14H1.3V-3.72ZM5.779-8.184c1.013,0,1.5.485,1.5,1.263q0,1.234-1.5,1.234h-2.1v-2.5ZM5.662-12.15c.808,0,1.263.367,1.263,1s-.485,1.028-1.263,1.028H3.679V-12.15ZM18.453-3.72V-5.805H13.284V-8.023H18V-10.05H13.284v-1.865h5.125V-14H10.9V-3.72Zm3.98-8.195V-3.72h2.379v-8.195h3.04V-14H19.393v2.085ZM29.027-3.72,29.952-6.2h3.583L34.46-3.72h2.585L32.86-14H30.627L26.442-3.72Zm2.717-7.4c.132.411.264.822.426,1.219l.617,1.674H30.7L31.318-9.9Z" transform="translate(436 298)" fill="#aba1c0"/></g><path d="M35.04-56H45.36V0H35.04V-4.72Q30.48,1.12,22.08,1.12A18.21,18.21,0,0,1,8.28-5,21.149,21.149,0,0,1,2.56-20,21.149,21.149,0,0,1,8.28-35a18.21,18.21,0,0,1,13.8-6.12q8.4,0,12.96,5.84ZM16-11.84a11,11,0,0,0,8,3.12,10.659,10.659,0,0,0,7.92-3.16A11.068,11.068,0,0,0,35.04-20a11.068,11.068,0,0,0-3.12-8.12A10.659,10.659,0,0,0,24-31.28a10.792,10.792,0,0,0-7.96,3.16A10.992,10.992,0,0,0,12.88-20,11.2,11.2,0,0,0,16-11.84Zm47.52-3.92Q65.6-8.24,74.8-8.24q5.92,0,8.96-4l8.32,4.8Q86.16,1.12,74.64,1.12q-9.92,0-15.92-6a20.5,20.5,0,0,1-6-15.12,20.681,20.681,0,0,1,5.92-15.08q5.92-6.04,15.2-6.04a19.072,19.072,0,0,1,14.52,6.08A21.111,21.111,0,0,1,94.08-20a24.161,24.161,0,0,1-.4,4.24Zm-.16-8h20.4a9.67,9.67,0,0,0-3.64-6.08,10.433,10.433,0,0,0-6.28-2,10.856,10.856,0,0,0-6.88,2.12A10.132,10.132,0,0,0,63.36-23.76ZM101.28,0V-58.4H111.6V0Zm53.84-4.96a20.6,20.6,0,0,1-15.04,6.08,20.4,20.4,0,0,1-15-6.12,20.4,20.4,0,0,1-6.12-15,20.4,20.4,0,0,1,6.12-15,20.4,20.4,0,0,1,15-6.12A20.53,20.53,0,0,1,155.12-35a20.33,20.33,0,0,1,6.16,15A20.462,20.462,0,0,1,155.12-4.96Zm-22.8-7.12a10.534,10.534,0,0,0,7.76,3.12,10.534,10.534,0,0,0,7.76-3.12A10.731,10.731,0,0,0,150.96-20a10.731,10.731,0,0,0-3.12-7.92,10.534,10.534,0,0,0-7.76-3.12,10.4,10.4,0,0,0-7.72,3.12A10.805,10.805,0,0,0,129.28-20,10.882,10.882,0,0,0,132.32-12.08ZM177.2-28.64q0,1.6,2.12,2.6a28.27,28.27,0,0,0,5.16,1.76,53.334,53.334,0,0,1,6.08,1.92,11.8,11.8,0,0,1,5.16,3.88,10.727,10.727,0,0,1,2.12,6.8,10.988,10.988,0,0,1-4.6,9.48,19.107,19.107,0,0,1-11.48,3.32q-12.32,0-16.8-9.52l8.96-5.04q1.76,5.2,7.84,5.2,5.52,0,5.52-3.44,0-1.6-2.12-2.6a30.258,30.258,0,0,0-5.16-1.8,53.949,53.949,0,0,1-6.08-2,12.483,12.483,0,0,1-5.16-3.8,9.98,9.98,0,0,1-2.12-6.52A11.174,11.174,0,0,1,171-37.72a17.092,17.092,0,0,1,10.84-3.4,18.118,18.118,0,0,1,8.88,2.2,16.078,16.078,0,0,1,6.32,6.28l-8.8,4.8a6.582,6.582,0,0,0-6.4-4.08,5.862,5.862,0,0,0-3.32.88A2.743,2.743,0,0,0,177.2-28.64Z" transform="translate(173.44 168.4)" fill="#fff"/></g></svg>